<?xml version="1.0" encoding="UTF-8"?>
<svg width="48px" height="48px" viewBox="0 0 48 48" version="1.1" xmlns="http://www.w3.org/2000/svg">
    <g stroke="none" stroke-width="1" fill="none" fill-rule="evenodd">
        <!-- Factory Building -->
        <path d="M4,36 L4,16 L12,20 L12,16 L20,20 L20,36 L4,36 Z" fill="#455A64" stroke="currentColor" stroke-width="1.5" stroke-linejoin="round"></path>
        
        <!-- Factory Chimney -->
        <rect x="8" y="12" width="4" height="8" fill="#455A64" stroke="currentColor" stroke-width="1.5" stroke-linejoin="round"></rect>
        <path d="M8,12 C8,10 10,8 10,8 C10,8 12,10 12,12" stroke="currentColor" stroke-width="1.5" fill="#455A64" stroke-linejoin="round"></path>
        
        <!-- Factory Windows -->
        <rect x="7" y="24" width="3" height="4" fill="#90CAF9" stroke="currentColor" stroke-width="1"></rect>
        <rect x="14" y="24" width="3" height="4" fill="#90CAF9" stroke="currentColor" stroke-width="1"></rect>
        <rect x="7" y="30" width="3" height="4" fill="#90CAF9" stroke="currentColor" stroke-width="1"></rect>
        <rect x="14" y="30" width="3" height="4" fill="#90CAF9" stroke="currentColor" stroke-width="1"></rect>
        
        <!-- Pipelines -->
        <path d="M20,28 L44,28 L44,32 L20,32 Z" fill="#FFC107" stroke="currentColor" stroke-width="1.5" stroke-linejoin="round"></path>
        <path d="M24,28 L24,20 L28,20 L28,28 Z" fill="#FFC107" stroke="currentColor" stroke-width="1.5" stroke-linejoin="round"></path>
        <path d="M36,28 L36,20 L40,20 L40,28 Z" fill="#FFC107" stroke="currentColor" stroke-width="1.5" stroke-linejoin="round"></path>
        
        <!-- Gauges -->
        <circle cx="26" cy="24" r="2" fill="#FFFFFF" stroke="currentColor" stroke-width="1"></circle>
        <circle cx="38" cy="24" r="2" fill="#FFFFFF" stroke="currentColor" stroke-width="1"></circle>
        
        <!-- Base -->
        <rect x="4" y="36" width="40" height="4" fill="#37474F" stroke="currentColor" stroke-width="1.5" stroke-linejoin="round"></rect>
    </g>
</svg>
