<?xml version="1.0" encoding="UTF-8"?>
<svg width="48px" height="48px" viewBox="0 0 48 48" version="1.1" xmlns="http://www.w3.org/2000/svg">
    <g stroke="none" stroke-width="1" fill="none" fill-rule="evenodd">
        <!-- Oil Drop -->
        <path d="M16,12 C16,12 8,20 8,28 C8,32.4183 11.5817,36 16,36 C20.4183,36 24,32.4183 24,28 C24,20 16,12 16,12 Z" fill="#1976D2" fill-rule="nonzero"></path>
        
        <!-- Gas Flame -->
        <path d="M32,12 C32,12 24,18 24,26 C24,30.4183 27.5817,34 32,34 C36.4183,34 40,30.4183 40,26 C40,18 32,12 32,12 Z" fill="#F57C00" fill-rule="nonzero"></path>
        
        <!-- Gauge Circle -->
        <circle cx="24" cy="24" r="22" stroke="currentColor" stroke-width="2"></circle>
        
        <!-- Gauge Ticks -->
        <line x1="24" y1="6" x2="24" y2="10" stroke="currentColor" stroke-width="2" stroke-linecap="round"></line>
        <line x1="24" y1="38" x2="24" y2="42" stroke="currentColor" stroke-width="2" stroke-linecap="round"></line>
        <line x1="6" y1="24" x2="10" y2="24" stroke="currentColor" stroke-width="2" stroke-linecap="round"></line>
        <line x1="38" y1="24" x2="42" y2="24" stroke="currentColor" stroke-width="2" stroke-linecap="round"></line>
        
        <!-- Gauge Needle -->
        <line x1="24" y1="24" x2="34" y2="14" stroke="currentColor" stroke-width="2" stroke-linecap="round"></line>
        <circle cx="24" cy="24" r="3" fill="currentColor"></circle>
    </g>
</svg>
